<?xml version="1.0" encoding="UTF-8" standalone="no"?>
<!DOCTYPE svg PUBLIC "-//W3C//DTD SVG 1.1//EN" "http://www.w3.org/Graphics/SVG/1.1/DTD/svg11.dtd">
<!-- Generated by Microsoft Visio, SVG Export Make America America Again.svg Page-1 -->
<svg xmlns="http://www.w3.org/2000/svg" xmlns:xlink="http://www.w3.org/1999/xlink" xmlns:ev="http://www.w3.org/2001/xml-events"
		xmlns:v="http://schemas.microsoft.com/visio/2003/SVGExtensions/" width="3.51042in" height="2.40104in"
		viewBox="0 0 252.75 172.875" xml:space="preserve" color-interpolation-filters="sRGB" class="st5">
	<v:documentProperties v:langID="1033" v:viewMarkup="false"/>

	<style type="text/css">
	<![CDATA[
		.st1 {fill:#0a3161;stroke:#0a3161;stroke-linecap:round;stroke-linejoin:round;stroke-width:3}
		.st2 {stroke:#0a3161;stroke-linecap:round;stroke-linejoin:round;stroke-width:3}
		.st3 {fill:none;stroke:none;stroke-linecap:round;stroke-linejoin:round;stroke-width:0.75}
		.st4 {fill:#0a3161;font-family:Broadway;font-size:1.16666em}
		.st5 {fill:none;fill-rule:evenodd;font-size:12px;overflow:visible;stroke-linecap:square;stroke-miterlimit:3}
	]]>
	</style>

	<g v:mID="0" v:index="1" v:groupContext="foregroundPage">
		<title>Page-1</title>
		<v:pageProperties v:drawingScale="1" v:pageScale="1" v:drawingUnits="19" v:shadowOffsetX="9" v:shadowOffsetY="-9"/>
		<g id="shape1031-1" v:mID="1031" v:groupContext="shape" transform="translate(144.375,-99.375)">
			<title>Sheet.1031</title>
			<path d="M18 100.88 L54 172.87 L18 172.87 L0 136.87 L18 100.88 Z" class="st1"/>
		</g>
		<g id="shape1032-3" v:mID="1032" v:groupContext="shape" transform="translate(180.375,-27.555)">
			<title>Sheet.1032</title>
			<path d="M18 100.88 L54 172.87 L18 172.87 L0 136.87 L18 100.88 Z" class="st1"/>
		</g>
		<g id="shape1033-5" v:mID="1033" v:groupContext="shape" transform="translate(108.375,-27.555)">
			<title>Sheet.1033</title>
			<path d="M18 100.88 L54 172.87 L18 172.87 L0 136.87 L18 100.88 Z" class="st1"/>
		</g>
		<g id="shape1034-7" v:mID="1034" v:groupContext="shape" transform="translate(72.375,-99.375)">
			<title>Sheet.1034</title>
			<path d="M18 100.88 L54 172.87 L18 172.87 L0 136.87 L18 100.88 Z" class="st1"/>
		</g>
		<g id="shape1035-9" v:mID="1035" v:groupContext="shape" transform="translate(36.375,-27.555)">
			<title>Sheet.1035</title>
			<path d="M18 100.88 L54 172.87 L18 172.87 L0 136.87 L18 100.88 Z" class="st1"/>
		</g>
		<g id="shape1036-11" v:mID="1036" v:groupContext="shape" transform="translate(-64.2104,67.9306) rotate(-63.4063)">
			<title>Sheet.1036</title>
			<path d="M0 172.87 L160.84 172.87" class="st2"/>
		</g>
		<g id="shape1037-14" v:mID="1037" v:groupContext="shape" transform="translate(7.82844,67.853) rotate(-63.3775)">
			<title>Sheet.1037</title>
			<path d="M0 172.87 L80.34 172.87" class="st2"/>
		</g>
		<g id="shape1038-17" v:mID="1038" v:groupContext="shape" transform="translate(-136.249,68.1879) rotate(-63.4349)">
			<title>Sheet.1038</title>
			<path d="M0 172.87 L120.75 172.87" class="st2"/>
		</g>
		<g id="shape1040-20" v:mID="1040" v:groupContext="shape" transform="translate(94.7327,-36.2595)">
			<title>Sheet.1040</title>
			<path d="M0 172.87 L27.29 172.87" class="st2"/>
		</g>
		<g id="shape1041-23" v:mID="1041" v:groupContext="shape" transform="translate(166.887,-36.5569)">
			<title>Sheet.1041</title>
			<path d="M0 172.87 L26.99 172.87" class="st2"/>
		</g>
		<g id="shape1042-26" v:mID="1042" v:groupContext="shape" transform="translate(22.425,-35.475)">
			<title>Sheet.1042</title>
			<path d="M0 172.87 L27.39 172.87" class="st2"/>
		</g>
		<g id="shape1043-29" v:mID="1043" v:groupContext="shape" transform="translate(0.375,-0.375)">
			<title>Sheet.1043</title>
			<desc>Make America, America Again</desc>
			<v:textBlock v:margins="rect(4,4,4,4)"/>
			<v:textRect cx="126" cy="159.375" width="252" height="27"/>
			<rect x="0" y="145.875" width="252" height="27" class="st3"/>
			<text x="9.31" y="163.58" class="st4" v:langID="1033"><v:paragraph v:horizAlign="1"/><v:tabList/>Make America, America Again</text>		</g>
	</g>
</svg>
