<?xml version="1.0" encoding="UTF-8" standalone="no"?>
<!DOCTYPE svg PUBLIC "-//W3C//DTD SVG 1.1//EN" "http://www.w3.org/Graphics/SVG/1.1/DTD/svg11.dtd">
<!-- Generated by Microsoft Visio, SVG Export repeat-square.svg Page-1 -->
<svg xmlns="http://www.w3.org/2000/svg" xmlns:xlink="http://www.w3.org/1999/xlink" xmlns:ev="http://www.w3.org/2001/xml-events"
		xmlns:v="http://schemas.microsoft.com/visio/2003/SVGExtensions/" width="2.04167in" height="2.04167in" viewBox="0 0 147 147"
		xml:space="preserve" color-interpolation-filters="sRGB" class="st3">
	<v:documentProperties v:langID="1033" v:viewMarkup="false"/>

	<style type="text/css">
	<![CDATA[
		.st1 {fill:#0a3161;stroke:#0a3161;stroke-linecap:round;stroke-linejoin:round;stroke-width:3}
		.st2 {stroke:#0a3161;stroke-linecap:round;stroke-linejoin:round;stroke-width:3}
		.st3 {fill:none;fill-rule:evenodd;font-size:12px;overflow:visible;stroke-linecap:square;stroke-miterlimit:3}
	]]>
	</style>

	<g v:mID="0" v:index="1" v:groupContext="foregroundPage">
		<title>Page-1</title>
		<v:pageProperties v:drawingScale="1" v:pageScale="1" v:drawingUnits="19" v:shadowOffsetX="9" v:shadowOffsetY="-9"/>
		<g id="group1191-1" transform="translate(1.5,-1.5)" v:mID="1191" v:groupContext="group">
			<title>Sheet.1191</title>
			<g id="group1174-2" v:mID="1174" v:groupContext="group">
				<title>Sheet.1174</title>
				<g id="shape1175-3" v:mID="1175" v:groupContext="shape">
					<title>Sheet.1175</title>
					<path d="M36 147 L0 147 L0 75 L36 147 Z" class="st1"/>
				</g>
				<g id="shape1176-5" v:mID="1176" v:groupContext="shape" transform="translate(40.35,-8.7)">
					<title>Sheet.1176</title>
					<path d="M0 147 L27.15 147" class="st2"/>
				</g>
				<g id="shape1177-8" v:mID="1177" v:groupContext="shape" transform="translate(54,0)">
					<title>Sheet.1177</title>
					<path d="M18 147 L0 111 L18 75 L18 147 Z" class="st1"/>
				</g>
				<g id="shape1178-10" v:mID="1178" v:groupContext="shape" transform="translate(-95.4808,81.2596) rotate(-63.4349)">
					<title>Sheet.1178</title>
					<path d="M0 147 L40.25 147" class="st2"/>
				</g>
			</g>
			<g id="group1179-13" transform="translate(72,0)" v:mID="1179" v:groupContext="group">
				<title>Sheet.1179</title>
				<g id="shape1180-14" v:mID="1180" v:groupContext="shape">
					<title>Sheet.1180</title>
					<path d="M36 147 L0 147 L0 75 L36 147 Z" class="st1"/>
				</g>
				<g id="shape1181-16" v:mID="1181" v:groupContext="shape" transform="translate(40.35,-8.7)">
					<title>Sheet.1181</title>
					<path d="M0 147 L27.15 147" class="st2"/>
				</g>
				<g id="shape1182-19" v:mID="1182" v:groupContext="shape" transform="translate(54,0)">
					<title>Sheet.1182</title>
					<path d="M18 147 L0 111 L18 75 L18 147 Z" class="st1"/>
				</g>
				<g id="shape1183-21" v:mID="1183" v:groupContext="shape" transform="translate(-95.4808,81.2596) rotate(-63.4349)">
					<title>Sheet.1183</title>
					<path d="M0 147 L40.25 147" class="st2"/>
				</g>
			</g>
			<g id="shape1185-24" v:mID="1185" v:groupContext="shape" transform="translate(36,-72)">
				<title>Sheet.1185</title>
				<path d="M36 147 L0 147 L0 75 L36 147 Z" class="st1"/>
			</g>
			<g id="shape1186-26" v:mID="1186" v:groupContext="shape" transform="translate(90,-72)">
				<title>Sheet.1186</title>
				<path d="M18 147 L0 111 L18 75 L18 147 Z" class="st1"/>
			</g>
			<g id="shape1187-28" v:mID="1187" v:groupContext="shape" transform="translate(-59.4808,9.25961) rotate(-63.4349)">
				<title>Sheet.1187</title>
				<path d="M0 147 L40.25 147" class="st2"/>
			</g>
			<g id="shape1188-31" v:mID="1188" v:groupContext="shape" transform="translate(108,-72)">
				<title>Sheet.1188</title>
				<path d="M36 147 L0 147 L0 75 L36 147 Z" class="st1"/>
			</g>
			<g id="shape1189-33" v:mID="1189" v:groupContext="shape" transform="translate(18,-72)">
				<title>Sheet.1189</title>
				<path d="M18 147 L0 111 L18 75 L18 147 Z" class="st1"/>
			</g>
			<g id="shape1190-35" v:mID="1190" v:groupContext="shape" transform="translate(-131.481,9.25959) rotate(-63.4349)">
				<title>Sheet.1190</title>
				<path d="M0 147 L40.25 147" class="st2"/>
			</g>
		</g>
	</g>
</svg>
