<?xml version="1.0" encoding="UTF-8" standalone="no"?>
<!DOCTYPE svg PUBLIC "-//W3C//DTD SVG 1.1//EN" "http://www.w3.org/Graphics/SVG/1.1/DTD/svg11.dtd">
<!-- Generated by Microsoft Visio, SVG Export repeating.svg Page-1 -->
<svg xmlns="http://www.w3.org/2000/svg" xmlns:xlink="http://www.w3.org/1999/xlink" xmlns:ev="http://www.w3.org/2001/xml-events"
		xmlns:v="http://schemas.microsoft.com/visio/2003/SVGExtensions/" width="6.04167in" height="4.04167in" viewBox="0 0 435 291"
		xml:space="preserve" color-interpolation-filters="sRGB" class="st3">
	<v:documentProperties v:langID="1033" v:viewMarkup="false"/>

	<style type="text/css">
	<![CDATA[
		.st1 {fill:#0a3161;stroke:#0a3161;stroke-linecap:round;stroke-linejoin:round;stroke-width:3}
		.st2 {stroke:#0a3161;stroke-linecap:round;stroke-linejoin:round;stroke-width:3}
		.st3 {fill:none;fill-rule:evenodd;font-size:12px;overflow:visible;stroke-linecap:square;stroke-miterlimit:3}
	]]>
	</style>

	<g v:mID="0" v:index="1" v:groupContext="foregroundPage">
		<title>Page-1</title>
		<v:pageProperties v:drawingScale="1" v:pageScale="1" v:drawingUnits="19" v:shadowOffsetX="9" v:shadowOffsetY="-9"/>
		<g id="group1192-1" transform="translate(1.5,-145.5)" v:mID="1192" v:groupContext="group">
			<title>Sheet.1192</title>
			<g id="shape1193-2" v:mID="1193" v:groupContext="shape">
				<title>Sheet.1193</title>
				<path d="M36 291 L0 291 L0 219 L36 291 Z" class="st1"/>
			</g>
			<g id="shape1194-4" v:mID="1194" v:groupContext="shape" transform="translate(40.35,-8.7)">
				<title>Sheet.1194</title>
				<path d="M0 291 L27.15 291" class="st2"/>
			</g>
			<g id="shape1195-7" v:mID="1195" v:groupContext="shape" transform="translate(54,5.68434E-14)">
				<title>Sheet.1195</title>
				<path d="M18 291 L0 255 L18 219 L18 291 Z" class="st1"/>
			</g>
			<g id="shape1196-9" v:mID="1196" v:groupContext="shape" transform="translate(-224.278,160.861) rotate(-63.4349)">
				<title>Sheet.1196</title>
				<path d="M0 291 L40.25 291" class="st2"/>
			</g>
		</g>
		<g id="group1197-12" transform="translate(73.5,-145.5)" v:mID="1197" v:groupContext="group">
			<title>Sheet.1197</title>
			<g id="shape1198-13" v:mID="1198" v:groupContext="shape">
				<title>Sheet.1198</title>
				<path d="M36 291 L0 291 L0 219 L36 291 Z" class="st1"/>
			</g>
			<g id="shape1199-15" v:mID="1199" v:groupContext="shape" transform="translate(40.35,-8.7)">
				<title>Sheet.1199</title>
				<path d="M0 291 L27.15 291" class="st2"/>
			</g>
			<g id="shape1200-18" v:mID="1200" v:groupContext="shape" transform="translate(54,5.68434E-14)">
				<title>Sheet.1200</title>
				<path d="M18 291 L0 255 L18 219 L18 291 Z" class="st1"/>
			</g>
			<g id="shape1201-20" v:mID="1201" v:groupContext="shape" transform="translate(-224.278,160.861) rotate(-63.4349)">
				<title>Sheet.1201</title>
				<path d="M0 291 L40.25 291" class="st2"/>
			</g>
		</g>
		<g id="shape1202-23" v:mID="1202" v:groupContext="shape" transform="translate(37.5,-217.5)">
			<title>Sheet.1202</title>
			<path d="M36 291 L0 291 L0 219 L36 291 Z" class="st1"/>
		</g>
		<g id="shape1203-25" v:mID="1203" v:groupContext="shape" transform="translate(91.5,-217.5)">
			<title>Sheet.1203</title>
			<path d="M18 291 L0 255 L18 219 L18 291 Z" class="st1"/>
		</g>
		<g id="shape1204-27" v:mID="1204" v:groupContext="shape" transform="translate(-186.778,-56.6391) rotate(-63.4349)">
			<title>Sheet.1204</title>
			<path d="M0 291 L40.25 291" class="st2"/>
		</g>
		<g id="shape1205-30" v:mID="1205" v:groupContext="shape" transform="translate(109.5,-217.5)">
			<title>Sheet.1205</title>
			<path d="M36 291 L0 291 L0 219 L36 291 Z" class="st1"/>
		</g>
		<g id="shape1206-32" v:mID="1206" v:groupContext="shape" transform="translate(19.5,-217.5)">
			<title>Sheet.1206</title>
			<path d="M18 291 L0 255 L18 219 L18 291 Z" class="st1"/>
		</g>
		<g id="shape1207-34" v:mID="1207" v:groupContext="shape" transform="translate(-258.778,-56.6392) rotate(-63.4349)">
			<title>Sheet.1207</title>
			<path d="M0 291 L40.25 291" class="st2"/>
		</g>
		<g id="group1224-37" transform="translate(145.5,-145.5)" v:mID="1224" v:groupContext="group">
			<title>Sheet.1224</title>
			<g id="group1208-38" v:mID="1208" v:groupContext="group">
				<title>Sheet.1208</title>
				<g id="shape1209-39" v:mID="1209" v:groupContext="shape">
					<title>Sheet.1209</title>
					<path d="M36 291 L0 291 L0 219 L36 291 Z" class="st1"/>
				</g>
				<g id="shape1210-41" v:mID="1210" v:groupContext="shape" transform="translate(40.35,-8.7)">
					<title>Sheet.1210</title>
					<path d="M0 291 L27.15 291" class="st2"/>
				</g>
				<g id="shape1211-44" v:mID="1211" v:groupContext="shape" transform="translate(54,5.68434E-14)">
					<title>Sheet.1211</title>
					<path d="M18 291 L0 255 L18 219 L18 291 Z" class="st1"/>
				</g>
				<g id="shape1212-46" v:mID="1212" v:groupContext="shape" transform="translate(-224.278,160.861) rotate(-63.4349)">
					<title>Sheet.1212</title>
					<path d="M0 291 L40.25 291" class="st2"/>
				</g>
			</g>
			<g id="group1213-49" transform="translate(72,5.68434E-14)" v:mID="1213" v:groupContext="group">
				<title>Sheet.1213</title>
				<g id="shape1214-50" v:mID="1214" v:groupContext="shape">
					<title>Sheet.1214</title>
					<path d="M36 291 L0 291 L0 219 L36 291 Z" class="st1"/>
				</g>
				<g id="shape1215-52" v:mID="1215" v:groupContext="shape" transform="translate(40.35,-8.7)">
					<title>Sheet.1215</title>
					<path d="M0 291 L27.15 291" class="st2"/>
				</g>
				<g id="shape1216-55" v:mID="1216" v:groupContext="shape" transform="translate(54,5.68434E-14)">
					<title>Sheet.1216</title>
					<path d="M18 291 L0 255 L18 219 L18 291 Z" class="st1"/>
				</g>
				<g id="shape1217-57" v:mID="1217" v:groupContext="shape" transform="translate(-224.278,160.861) rotate(-63.4349)">
					<title>Sheet.1217</title>
					<path d="M0 291 L40.25 291" class="st2"/>
				</g>
			</g>
			<g id="shape1218-60" v:mID="1218" v:groupContext="shape" transform="translate(36,-72)">
				<title>Sheet.1218</title>
				<path d="M36 291 L0 291 L0 219 L36 291 Z" class="st1"/>
			</g>
			<g id="shape1219-62" v:mID="1219" v:groupContext="shape" transform="translate(90,-72)">
				<title>Sheet.1219</title>
				<path d="M18 291 L0 255 L18 219 L18 291 Z" class="st1"/>
			</g>
			<g id="shape1220-64" v:mID="1220" v:groupContext="shape" transform="translate(-188.278,88.8608) rotate(-63.4349)">
				<title>Sheet.1220</title>
				<path d="M0 291 L40.25 291" class="st2"/>
			</g>
			<g id="shape1221-67" v:mID="1221" v:groupContext="shape" transform="translate(108,-72)">
				<title>Sheet.1221</title>
				<path d="M36 291 L0 291 L0 219 L36 291 Z" class="st1"/>
			</g>
			<g id="shape1222-69" v:mID="1222" v:groupContext="shape" transform="translate(18,-72)">
				<title>Sheet.1222</title>
				<path d="M18 291 L0 255 L18 219 L18 291 Z" class="st1"/>
			</g>
			<g id="shape1223-71" v:mID="1223" v:groupContext="shape" transform="translate(-260.278,88.8608) rotate(-63.4349)">
				<title>Sheet.1223</title>
				<path d="M0 291 L40.25 291" class="st2"/>
			</g>
		</g>
		<g id="group1225-74" transform="translate(289.5,-145.5)" v:mID="1225" v:groupContext="group">
			<title>Sheet.1225</title>
			<g id="group1226-75" v:mID="1226" v:groupContext="group">
				<title>Sheet.1226</title>
				<g id="shape1227-76" v:mID="1227" v:groupContext="shape">
					<title>Sheet.1227</title>
					<path d="M36 291 L0 291 L0 219 L36 291 Z" class="st1"/>
				</g>
				<g id="shape1228-78" v:mID="1228" v:groupContext="shape" transform="translate(40.35,-8.7)">
					<title>Sheet.1228</title>
					<path d="M0 291 L27.15 291" class="st2"/>
				</g>
				<g id="shape1229-81" v:mID="1229" v:groupContext="shape" transform="translate(54,5.68434E-14)">
					<title>Sheet.1229</title>
					<path d="M18 291 L0 255 L18 219 L18 291 Z" class="st1"/>
				</g>
				<g id="shape1230-83" v:mID="1230" v:groupContext="shape" transform="translate(-224.278,160.861) rotate(-63.4349)">
					<title>Sheet.1230</title>
					<path d="M0 291 L40.25 291" class="st2"/>
				</g>
			</g>
			<g id="group1231-86" transform="translate(72,5.68434E-14)" v:mID="1231" v:groupContext="group">
				<title>Sheet.1231</title>
				<g id="shape1232-87" v:mID="1232" v:groupContext="shape">
					<title>Sheet.1232</title>
					<path d="M36 291 L0 291 L0 219 L36 291 Z" class="st1"/>
				</g>
				<g id="shape1233-89" v:mID="1233" v:groupContext="shape" transform="translate(40.35,-8.7)">
					<title>Sheet.1233</title>
					<path d="M0 291 L27.15 291" class="st2"/>
				</g>
				<g id="shape1234-92" v:mID="1234" v:groupContext="shape" transform="translate(54,5.68434E-14)">
					<title>Sheet.1234</title>
					<path d="M18 291 L0 255 L18 219 L18 291 Z" class="st1"/>
				</g>
				<g id="shape1235-94" v:mID="1235" v:groupContext="shape" transform="translate(-224.278,160.861) rotate(-63.4349)">
					<title>Sheet.1235</title>
					<path d="M0 291 L40.25 291" class="st2"/>
				</g>
			</g>
			<g id="shape1236-97" v:mID="1236" v:groupContext="shape" transform="translate(36,-72)">
				<title>Sheet.1236</title>
				<path d="M36 291 L0 291 L0 219 L36 291 Z" class="st1"/>
			</g>
			<g id="shape1237-99" v:mID="1237" v:groupContext="shape" transform="translate(90,-72)">
				<title>Sheet.1237</title>
				<path d="M18 291 L0 255 L18 219 L18 291 Z" class="st1"/>
			</g>
			<g id="shape1238-101" v:mID="1238" v:groupContext="shape" transform="translate(-188.278,88.8608) rotate(-63.4349)">
				<title>Sheet.1238</title>
				<path d="M0 291 L40.25 291" class="st2"/>
			</g>
			<g id="shape1239-104" v:mID="1239" v:groupContext="shape" transform="translate(108,-72)">
				<title>Sheet.1239</title>
				<path d="M36 291 L0 291 L0 219 L36 291 Z" class="st1"/>
			</g>
			<g id="shape1240-106" v:mID="1240" v:groupContext="shape" transform="translate(18,-72)">
				<title>Sheet.1240</title>
				<path d="M18 291 L0 255 L18 219 L18 291 Z" class="st1"/>
			</g>
			<g id="shape1241-108" v:mID="1241" v:groupContext="shape" transform="translate(-260.278,88.8608) rotate(-63.4349)">
				<title>Sheet.1241</title>
				<path d="M0 291 L40.25 291" class="st2"/>
			</g>
		</g>
		<g id="group1242-111" transform="translate(1.5,-1.5)" v:mID="1242" v:groupContext="group">
			<title>Sheet.1242</title>
			<g id="shape1254-112" v:mID="1254" v:groupContext="shape" transform="translate(90,-72)">
				<title>Sheet.1254</title>
				<path d="M18 291 L0 255 L18 219 L18 291 Z" class="st1"/>
			</g>
			<g id="shape1256-114" v:mID="1256" v:groupContext="shape" transform="translate(108,-72)">
				<title>Sheet.1256</title>
				<path d="M36 291 L0 291 L0 219 L36 291 Z" class="st1"/>
			</g>
			<g id="group1243-116" v:mID="1243" v:groupContext="group">
				<title>Sheet.1243</title>
				<g id="shape1244-117" v:mID="1244" v:groupContext="shape">
					<title>Sheet.1244</title>
					<path d="M36 291 L0 291 L0 219 L36 291 Z" class="st1"/>
				</g>
				<g id="shape1245-119" v:mID="1245" v:groupContext="shape" transform="translate(40.35,-8.7)">
					<title>Sheet.1245</title>
					<path d="M0 291 L27.15 291" class="st2"/>
				</g>
				<g id="shape1246-122" v:mID="1246" v:groupContext="shape" transform="translate(54,5.68434E-14)">
					<title>Sheet.1246</title>
					<path d="M18 291 L0 255 L18 219 L18 291 Z" class="st1"/>
				</g>
				<g id="shape1247-124" v:mID="1247" v:groupContext="shape" transform="translate(-224.278,160.861) rotate(-63.4349)">
					<title>Sheet.1247</title>
					<path d="M0 291 L40.25 291" class="st2"/>
				</g>
			</g>
			<g id="group1248-127" transform="translate(72,5.68434E-14)" v:mID="1248" v:groupContext="group">
				<title>Sheet.1248</title>
				<g id="shape1249-128" v:mID="1249" v:groupContext="shape">
					<title>Sheet.1249</title>
					<path d="M36 291 L0 291 L0 219 L36 291 Z" class="st1"/>
				</g>
				<g id="shape1250-130" v:mID="1250" v:groupContext="shape" transform="translate(40.35,-8.7)">
					<title>Sheet.1250</title>
					<path d="M0 291 L27.15 291" class="st2"/>
				</g>
				<g id="shape1251-133" v:mID="1251" v:groupContext="shape" transform="translate(54,5.68434E-14)">
					<title>Sheet.1251</title>
					<path d="M18 291 L0 255 L18 219 L18 291 Z" class="st1"/>
				</g>
				<g id="shape1252-135" v:mID="1252" v:groupContext="shape" transform="translate(-224.278,160.861) rotate(-63.4349)">
					<title>Sheet.1252</title>
					<path d="M0 291 L40.25 291" class="st2"/>
				</g>
			</g>
			<g id="shape1253-138" v:mID="1253" v:groupContext="shape" transform="translate(36,-72)">
				<title>Sheet.1253</title>
				<path d="M36 291 L0 291 L0 219 L36 291 Z" class="st1"/>
			</g>
			<g id="shape1255-140" v:mID="1255" v:groupContext="shape" transform="translate(-188.278,88.8608) rotate(-63.4349)">
				<title>Sheet.1255</title>
				<path d="M0 291 L40.25 291" class="st2"/>
			</g>
			<g id="shape1257-143" v:mID="1257" v:groupContext="shape" transform="translate(18,-72)">
				<title>Sheet.1257</title>
				<path d="M18 291 L0 255 L18 219 L18 291 Z" class="st1"/>
			</g>
			<g id="shape1258-145" v:mID="1258" v:groupContext="shape" transform="translate(-260.278,88.8608) rotate(-63.4349)">
				<title>Sheet.1258</title>
				<path d="M0 291 L40.25 291" class="st2"/>
			</g>
		</g>
		<g id="group1259-148" transform="translate(145.5,-1.5)" v:mID="1259" v:groupContext="group">
			<title>Sheet.1259</title>
			<g id="group1260-149" v:mID="1260" v:groupContext="group">
				<title>Sheet.1260</title>
				<g id="shape1261-150" v:mID="1261" v:groupContext="shape">
					<title>Sheet.1261</title>
					<path d="M36 291 L0 291 L0 219 L36 291 Z" class="st1"/>
				</g>
				<g id="shape1262-152" v:mID="1262" v:groupContext="shape" transform="translate(40.35,-8.7)">
					<title>Sheet.1262</title>
					<path d="M0 291 L27.15 291" class="st2"/>
				</g>
				<g id="shape1263-155" v:mID="1263" v:groupContext="shape" transform="translate(54,5.68434E-14)">
					<title>Sheet.1263</title>
					<path d="M18 291 L0 255 L18 219 L18 291 Z" class="st1"/>
				</g>
				<g id="shape1264-157" v:mID="1264" v:groupContext="shape" transform="translate(-224.278,160.861) rotate(-63.4349)">
					<title>Sheet.1264</title>
					<path d="M0 291 L40.25 291" class="st2"/>
				</g>
			</g>
			<g id="group1265-160" transform="translate(72,5.68434E-14)" v:mID="1265" v:groupContext="group">
				<title>Sheet.1265</title>
				<g id="shape1266-161" v:mID="1266" v:groupContext="shape">
					<title>Sheet.1266</title>
					<path d="M36 291 L0 291 L0 219 L36 291 Z" class="st1"/>
				</g>
				<g id="shape1267-163" v:mID="1267" v:groupContext="shape" transform="translate(40.35,-8.7)">
					<title>Sheet.1267</title>
					<path d="M0 291 L27.15 291" class="st2"/>
				</g>
				<g id="shape1268-166" v:mID="1268" v:groupContext="shape" transform="translate(54,5.68434E-14)">
					<title>Sheet.1268</title>
					<path d="M18 291 L0 255 L18 219 L18 291 Z" class="st1"/>
				</g>
				<g id="shape1269-168" v:mID="1269" v:groupContext="shape" transform="translate(-224.278,160.861) rotate(-63.4349)">
					<title>Sheet.1269</title>
					<path d="M0 291 L40.25 291" class="st2"/>
				</g>
			</g>
			<g id="shape1270-171" v:mID="1270" v:groupContext="shape" transform="translate(36,-72)">
				<title>Sheet.1270</title>
				<path d="M36 291 L0 291 L0 219 L36 291 Z" class="st1"/>
			</g>
			<g id="shape1271-173" v:mID="1271" v:groupContext="shape" transform="translate(90,-72)">
				<title>Sheet.1271</title>
				<path d="M18 291 L0 255 L18 219 L18 291 Z" class="st1"/>
			</g>
			<g id="shape1272-175" v:mID="1272" v:groupContext="shape" transform="translate(-188.278,88.8608) rotate(-63.4349)">
				<title>Sheet.1272</title>
				<path d="M0 291 L40.25 291" class="st2"/>
			</g>
			<g id="shape1273-178" v:mID="1273" v:groupContext="shape" transform="translate(108,-72)">
				<title>Sheet.1273</title>
				<path d="M36 291 L0 291 L0 219 L36 291 Z" class="st1"/>
			</g>
			<g id="shape1274-180" v:mID="1274" v:groupContext="shape" transform="translate(18,-72)">
				<title>Sheet.1274</title>
				<path d="M18 291 L0 255 L18 219 L18 291 Z" class="st1"/>
			</g>
			<g id="shape1275-182" v:mID="1275" v:groupContext="shape" transform="translate(-260.278,88.8608) rotate(-63.4349)">
				<title>Sheet.1275</title>
				<path d="M0 291 L40.25 291" class="st2"/>
			</g>
		</g>
		<g id="group1276-185" transform="translate(289.5,-1.5)" v:mID="1276" v:groupContext="group">
			<title>Sheet.1276</title>
			<g id="group1277-186" v:mID="1277" v:groupContext="group">
				<title>Sheet.1277</title>
				<g id="shape1278-187" v:mID="1278" v:groupContext="shape">
					<title>Sheet.1278</title>
					<path d="M36 291 L0 291 L0 219 L36 291 Z" class="st1"/>
				</g>
				<g id="shape1279-189" v:mID="1279" v:groupContext="shape" transform="translate(40.35,-8.7)">
					<title>Sheet.1279</title>
					<path d="M0 291 L27.15 291" class="st2"/>
				</g>
				<g id="shape1280-192" v:mID="1280" v:groupContext="shape" transform="translate(54,5.68434E-14)">
					<title>Sheet.1280</title>
					<path d="M18 291 L0 255 L18 219 L18 291 Z" class="st1"/>
				</g>
				<g id="shape1281-194" v:mID="1281" v:groupContext="shape" transform="translate(-224.278,160.861) rotate(-63.4349)">
					<title>Sheet.1281</title>
					<path d="M0 291 L40.25 291" class="st2"/>
				</g>
			</g>
			<g id="group1282-197" transform="translate(72,5.68434E-14)" v:mID="1282" v:groupContext="group">
				<title>Sheet.1282</title>
				<g id="shape1283-198" v:mID="1283" v:groupContext="shape">
					<title>Sheet.1283</title>
					<path d="M36 291 L0 291 L0 219 L36 291 Z" class="st1"/>
				</g>
				<g id="shape1284-200" v:mID="1284" v:groupContext="shape" transform="translate(40.35,-8.7)">
					<title>Sheet.1284</title>
					<path d="M0 291 L27.15 291" class="st2"/>
				</g>
				<g id="shape1285-203" v:mID="1285" v:groupContext="shape" transform="translate(54,5.68434E-14)">
					<title>Sheet.1285</title>
					<path d="M18 291 L0 255 L18 219 L18 291 Z" class="st1"/>
				</g>
				<g id="shape1286-205" v:mID="1286" v:groupContext="shape" transform="translate(-224.278,160.861) rotate(-63.4349)">
					<title>Sheet.1286</title>
					<path d="M0 291 L40.25 291" class="st2"/>
				</g>
			</g>
			<g id="shape1287-208" v:mID="1287" v:groupContext="shape" transform="translate(36,-72)">
				<title>Sheet.1287</title>
				<path d="M36 291 L0 291 L0 219 L36 291 Z" class="st1"/>
			</g>
			<g id="shape1288-210" v:mID="1288" v:groupContext="shape" transform="translate(90,-72)">
				<title>Sheet.1288</title>
				<path d="M18 291 L0 255 L18 219 L18 291 Z" class="st1"/>
			</g>
			<g id="shape1289-212" v:mID="1289" v:groupContext="shape" transform="translate(-188.278,88.8608) rotate(-63.4349)">
				<title>Sheet.1289</title>
				<path d="M0 291 L40.25 291" class="st2"/>
			</g>
			<g id="shape1290-215" v:mID="1290" v:groupContext="shape" transform="translate(108,-72)">
				<title>Sheet.1290</title>
				<path d="M36 291 L0 291 L0 219 L36 291 Z" class="st1"/>
			</g>
			<g id="shape1291-217" v:mID="1291" v:groupContext="shape" transform="translate(18,-72)">
				<title>Sheet.1291</title>
				<path d="M18 291 L0 255 L18 219 L18 291 Z" class="st1"/>
			</g>
			<g id="shape1292-219" v:mID="1292" v:groupContext="shape" transform="translate(-260.278,88.8608) rotate(-63.4349)">
				<title>Sheet.1292</title>
				<path d="M0 291 L40.25 291" class="st2"/>
			</g>
		</g>
	</g>
</svg>
